HIERARCHY
ROOT Hips
{
	OFFSET 15.585500 22.159004 44.358299
	CHANNELS 6 Xposition Yposition Zposition Zrotation Xrotation Yrotation
	JOINT Chest
	{
		OFFSET -0.128500 0.160400 6.566002
		CHANNELS 6 Xposition Yposition Zposition Zrotation Xrotation Yrotation
		JOINT Chest2
		{
			OFFSET 0.000000 0.000000 3.554802
			CHANNELS 6 Xposition Yposition Zposition Zrotation Xrotation Yrotation
			JOINT Neck
			{
				OFFSET 0.000000 0.000000 8.267998
				CHANNELS 6 Xposition Yposition Zposition Zrotation Xrotation Yrotation
				JOINT Head
				{
					OFFSET 0.000000 0.000002 2.173897
					CHANNELS 6 Xposition Yposition Zposition Zrotation Xrotation Yrotation
					End Site
					{
						OFFSET 0.000000 0.000000 7.718697
					}
				}
			}
			JOINT LeftCollar
			{
				OFFSET 2.057500 0.117599 5.946301
				CHANNELS 6 Xposition Yposition Zposition Zrotation Xrotation Yrotation
				JOINT LeftShoulder
				{
					OFFSET 4.957699 0.000000 0.000000
					CHANNELS 6 Xposition Yposition Zposition Zrotation Xrotation Yrotation
					JOINT LeftElbow
					{
						OFFSET 0.000000 0.000000 -8.465500
						CHANNELS 6 Xposition Yposition Zposition Zrotation Xrotation Yrotation
						JOINT LeftWrist
						{
							OFFSET 0.000000 -0.000002 -14.594898
							CHANNELS 6 Xposition Yposition Zposition Zrotation Xrotation Yrotation
							End Site
							{
								OFFSET 0.000000 0.000000 -2.173901
							}
						}
					}
				}
			}
			JOINT RightCollar
			{
				OFFSET -3.048500 -0.728800 6.604099
				CHANNELS 6 Xposition Yposition Zposition Zrotation Xrotation Yrotation
				JOINT RightShoulder
				{
					OFFSET -3.710299 0.000000 0.000000
					CHANNELS 6 Xposition Yposition Zposition Zrotation Xrotation Yrotation
					JOINT RightElbow
					{
						OFFSET 0.000000 0.000000 -10.450901
						CHANNELS 6 Xposition Yposition Zposition Zrotation Xrotation Yrotation
						JOINT RightWrist
						{
							OFFSET 0.000000 0.000000 -12.539200
							CHANNELS 6 Xposition Yposition Zposition Zrotation Xrotation Yrotation
							End Site
							{
								OFFSET 0.000000 -0.000002 -2.173901
							}
						}
					}
				}
			}
		}
	}
	JOINT LeftHip
	{
		OFFSET 2.442599 -0.601400 -2.767502
		CHANNELS 6 Xposition Yposition Zposition Zrotation Xrotation Yrotation
		JOINT LeftKnee
		{
			OFFSET 0.000000 -0.000002 -17.033703
			CHANNELS 6 Xposition Yposition Zposition Zrotation Xrotation Yrotation
			JOINT LeftAnkle
			{
				OFFSET 0.000000 -0.000002 -19.318800
				CHANNELS 6 Xposition Yposition Zposition Zrotation Xrotation Yrotation
				End Site
				{
					OFFSET 0.000000 -8.281900 0.000000
				}
			}
		}
	}
	JOINT RightHip
	{
		OFFSET -3.126200 -0.601400 -2.283501
		CHANNELS 6 Xposition Yposition Zposition Zrotation Xrotation Yrotation
		JOINT RightKnee
		{
			OFFSET 0.000000 -0.000002 -16.919401
			CHANNELS 6 Xposition Yposition Zposition Zrotation Xrotation Yrotation
			JOINT RightAnkle
			{
				OFFSET 0.000000 -0.000002 -18.035900
				CHANNELS 6 Xposition Yposition Zposition Zrotation Xrotation Yrotation
				End Site
				{
					OFFSET 0.000000 -9.230099 0.000000
				}
			}
		}
	}
}
MOTION
Frames: 4
Frame Time: 0.041667
23.422001 38.874405 8.609901 2.025582 -1.909207 -3.391568 -0.128498 0.160394 6.566005 -2.595405 5.484035 4.622525 0.000001 -0.000002 3.554810 -2.376107 -12.628318 -2.068531 -0.000002 -0.000002 8.267994 3.051461 31.148152 -14.652718 0.000006 -0.000003 2.173900 -12.570731 4.479615 2.065636 2.057504 0.117596 5.946305 -20.271679 4.900556 8.238057 4.957702 0.000003 0.000003 -8.121873 0.289759 -167.168197 0.000000 0.000000 -8.465506 -135.887324 -154.123437 -165.370341 -0.000003 0.000006 -14.594882 -623.283995 -2.501271 -361.404434 -3.048502 -0.728800 6.604106 27.565684 5.911312 -8.861950 -3.710299 -0.000000 -0.000006 18.940736 -0.005566 163.539222 0.000001 -0.000001 -10.450898 338.939777 -35.005973 355.263055 0.000006 0.000002 -12.539197 416.506138 180.448544 -180.030126 2.442596 -0.601403 -2.767503 129.076287 -22.763105 89.242241 -0.000004 -0.000003 -17.033709 -162.715392 50.774585 175.355982 -0.000000 0.000000 -19.318800 -146.374465 120.238049 399.801353 -3.126199 -0.601409 -2.283499 -129.848330 -25.893835 -98.356309 -0.000006 -0.000002 -16.919395 337.062732 -63.540526 -200.614445 0.000000 -0.000005 -18.035894 185.067459 53.638715 -186.588692
23.425501 38.847107 8.616798 2.038200 -1.701881 -3.394818 -0.128500 0.160397 6.566005 -2.593583 5.356059 4.585568 0.000004 -0.000001 3.554810 -2.369490 -12.618946 -2.064022 0.000002 0.000003 8.268000 2.984599 30.843871 -14.566951 0.000005 0.000005 2.173899 -12.525495 4.402238 2.068207 2.057506 0.117600 5.946307 -19.989413 4.675489 7.942477 4.957694 0.000010 -0.000003 -8.401606 0.468716 -167.018028 0.000003 0.000003 -8.465503 -136.073269 -154.283113 -165.602567 0.000007 0.000002 -14.594887 -623.879861 -2.626432 -362.113161 -3.048499 -0.728795 6.604103 27.073232 5.533404 -8.397831 -3.710297 -0.000002 -0.000009 19.448438 0.256252 163.237232 0.000003 0.000003 -10.450890 338.840248 -34.694175 355.281497 -0.000000 0.000004 -12.539186 416.985234 180.776201 -180.103168 2.442592 -0.601400 -2.767504 129.200869 -22.518517 89.377274 0.000000 0.000001 -17.033707 -162.756482 50.681178 175.306258 -0.000001 -0.000002 -19.318804 -146.341010 120.272815 399.778840 -3.126204 -0.601402 -2.283498 -129.946548 -25.843177 -98.501443 -0.000005 -0.000005 -16.919397 336.396898 -63.432684 -201.084335 0.000002 -0.000003 -18.035896 184.727630 53.652843 -186.473098
23.428801 38.820606 8.623302 2.045509 -1.496786 -3.396655 -0.128498 0.160396 6.566003 -2.586659 5.231410 4.548417 -0.000001 -0.000005 3.554806 -2.361046 -12.611629 -2.059379 -0.000002 -0.000001 8.268005 2.914223 30.540023 -14.478599 0.000003 0.000006 2.173898 -12.479025 4.426278 2.039238 2.057503 0.117605 5.946307 -19.720401 4.456978 7.660759 4.957698 0.000005 -0.000005 -8.670158 0.632021 -166.886192 -0.000002 0.000000 -8.465499 -136.228820 -154.444265 -165.818360 0.000002 -0.000001 -14.594888 -624.151429 -2.792096 -361.885443 -3.048501 -0.728800 6.604102 26.579915 5.153635 -7.937021 -3.710299 0.000005 -0.000010 19.994759 0.499726 162.934996 0.000006 0.000003 -10.450888 338.758040 -34.378470 355.294419 -0.000002 -0.000002 -12.539187 417.426519 181.085472 -180.170951 2.442593 -0.601404 -2.767497 129.327515 -22.279818 89.512785 -0.000002 -0.000010 -17.033707 -162.886993 50.603932 175.335846 -0.000000 0.000000 -19.318808 -146.333661 120.295354 399.740810 -3.126200 -0.601403 -2.283499 -130.034917 -25.795674 -98.642480 -0.000003 -0.000004 -16.919395 335.766062 -63.331604 -201.523024 0.000002 -0.000005 -18.035896 184.407034 53.665397 -186.361793
23.431900 38.795006 8.629395 2.043184 -1.298654 -3.461274 -0.128497 0.160403 6.566002 -2.576524 5.111889 4.575436 -0.000000 -0.000004 3.554808 -2.350681 -12.606570 -2.054589 -0.000000 0.000004 8.267994 2.840685 30.237056 -14.387945 0.000002 0.000003 2.173899 -12.423428 4.350047 2.029122 2.057505 0.117603 5.946307 -19.467808 4.247228 7.393897 4.957698 0.000008 -0.000001 -8.924447 0.776908 -166.774163 -0.000000 0.000000 -8.465498 -136.358785 -154.604911 -166.017870 -0.000004 0.000001 -14.594896 -624.437095 -3.179479 -361.729195 -3.048505 -0.728801 6.604100 26.095675 4.779072 -7.479769 -3.710296 -0.000003 -0.000003 20.573312 0.714165 162.634413 -0.000000 0.000005 -10.450892 338.702524 -34.061911 355.304856 0.000004 0.000001 -12.539191 417.832342 181.373980 -180.228748 2.442595 -0.601400 -2.767503 129.441756 -22.001802 89.601270 -0.000002 -0.000002 -17.033707 -163.011112 50.530204 175.363440 -0.000003 -0.000004 -19.318806 -146.326927 120.316364 399.705703 -3.126200 -0.601404 -2.283499 -130.128668 -25.801210 -98.822387 -0.000003 -0.000003 -16.919394 335.177491 -63.237361 -201.926374 0.000001 -0.000003 -18.035896 184.109074 53.676356 -186.256376
